<?xml version="1.0" encoding="UTF-8" standalone="no"?>
<!DOCTYPE svg PUBLIC "-//W3C//DTD SVG 1.1//EN"
 "http://www.w3.org/Graphics/SVG/1.1/DTD/svg11.dtd">
<!-- Generated by graphviz version 2.47.0 (20210316.0004)
 -->
<!-- Pages: 1 -->
<svg width="2028pt" height="662pt"
 viewBox="0.00 0.00 2028.00 661.73" xmlns="http://www.w3.org/2000/svg" xmlns:xlink="http://www.w3.org/1999/xlink">
<g id="graph0" class="graph" transform="scale(1 1) rotate(0) translate(4 657.73)">
<polygon fill="white" stroke="transparent" points="-4,4 -4,-657.73 2024,-657.73 2024,4 -4,4"/>
<text text-anchor="middle" x="1010" y="-7.8" font-family="Times New Roman,serif" font-size="14.00">State Machine</text>
<!-- user -->
<g id="node1" class="node">
<title>user</title>
<ellipse fill="darksalmon" stroke="red" cx="84" cy="-203.73" rx="43" ry="43"/>
<ellipse fill="none" stroke="red" cx="84" cy="-203.73" rx="47" ry="47"/>
<text text-anchor="middle" x="84" y="-200.03" font-family="Times New Roman,serif" font-size="14.00">user</text>
</g>
<!-- main_menu -->
<g id="node2" class="node">
<title>main_menu</title>
<ellipse fill="white" stroke="black" cx="657" cy="-203.73" rx="43" ry="43"/>
<text text-anchor="middle" x="657" y="-200.03" font-family="Times New Roman,serif" font-size="14.00">main_menu</text>
</g>
<!-- user&#45;&gt;main_menu -->
<g id="edge1" class="edge">
<title>user&#45;&gt;main_menu</title>
<path fill="none" stroke="black" d="M131.24,-203.73C236.31,-203.73 492.45,-203.73 603.36,-203.73"/>
<polygon fill="black" stroke="black" points="603.63,-207.23 613.63,-203.73 603.63,-200.23 603.63,-207.23"/>
<text text-anchor="middle" x="374" y="-207.53" font-family="Times New Roman,serif" font-size="14.00">advance [is_going_to_main_menu]</text>
</g>
<!-- main_menu&#45;&gt;main_menu -->
<g id="edge2" class="edge">
<title>main_menu&#45;&gt;main_menu</title>
<path fill="none" stroke="black" d="M617.76,-221.52C590.77,-241.61 603.85,-264.73 657,-264.73 703.92,-264.73 719.61,-246.71 704.08,-228.67"/>
<polygon fill="black" stroke="black" points="705.99,-225.67 696.24,-221.52 701.27,-230.85 705.99,-225.67"/>
<text text-anchor="middle" x="657" y="-268.53" font-family="Times New Roman,serif" font-size="14.00">advance [is_going_to_main_menu]</text>
</g>
<!-- drills -->
<g id="node3" class="node">
<title>drills</title>
<ellipse fill="white" stroke="black" cx="1322" cy="-359.73" rx="43" ry="43"/>
<text text-anchor="middle" x="1322" y="-356.03" font-family="Times New Roman,serif" font-size="14.00">drills</text>
</g>
<!-- main_menu&#45;&gt;drills -->
<g id="edge3" class="edge">
<title>main_menu&#45;&gt;drills</title>
<path fill="none" stroke="black" d="M688.73,-233.07C723.19,-263.91 782.26,-310.79 843,-331.73 990.8,-382.66 1179.39,-373.87 1269.09,-365.62"/>
<polygon fill="black" stroke="black" points="1269.65,-369.08 1279.27,-364.65 1268.98,-362.11 1269.65,-369.08"/>
<text text-anchor="middle" x="941" y="-371.53" font-family="Times New Roman,serif" font-size="14.00">advance [is_going_to_drills]</text>
</g>
<!-- positions -->
<g id="node4" class="node">
<title>positions</title>
<ellipse fill="white" stroke="black" cx="1322" cy="-255.73" rx="43" ry="43"/>
<text text-anchor="middle" x="1322" y="-252.03" font-family="Times New Roman,serif" font-size="14.00">positions</text>
</g>
<!-- main_menu&#45;&gt;positions -->
<g id="edge4" class="edge">
<title>main_menu&#45;&gt;positions</title>
<path fill="none" stroke="black" d="M699.24,-213.39C736.56,-221.68 793.13,-233.15 843,-238.73 997.04,-255.94 1180.58,-257.09 1268.7,-256.45"/>
<polygon fill="black" stroke="black" points="1268.99,-259.94 1278.96,-256.36 1268.93,-252.95 1268.99,-259.94"/>
<text text-anchor="middle" x="941" y="-255.53" font-family="Times New Roman,serif" font-size="14.00">advance [is_going_to_positions]</text>
</g>
<!-- rules -->
<g id="node5" class="node">
<title>rules</title>
<ellipse fill="white" stroke="black" cx="1322" cy="-151.73" rx="43" ry="43"/>
<text text-anchor="middle" x="1322" y="-148.03" font-family="Times New Roman,serif" font-size="14.00">rules</text>
</g>
<!-- main_menu&#45;&gt;rules -->
<g id="edge5" class="edge">
<title>main_menu&#45;&gt;rules</title>
<path fill="none" stroke="black" d="M699.85,-199.34C737.33,-195.49 793.8,-189.87 843,-185.73 997.71,-172.7 1180.86,-160.6 1268.78,-154.99"/>
<polygon fill="black" stroke="black" points="1269.01,-158.49 1278.77,-154.36 1268.57,-151.5 1269.01,-158.49"/>
<text text-anchor="middle" x="941" y="-189.53" font-family="Times New Roman,serif" font-size="14.00">advance [is_going_to_rules]</text>
</g>
<!-- help -->
<g id="node6" class="node">
<title>help</title>
<ellipse fill="white" stroke="black" cx="1943" cy="-90.73" rx="43" ry="43"/>
<text text-anchor="middle" x="1943" y="-87.03" font-family="Times New Roman,serif" font-size="14.00">help</text>
</g>
<!-- main_menu&#45;&gt;help -->
<g id="edge6" class="edge">
<title>main_menu&#45;&gt;help</title>
<path fill="none" stroke="black" d="M696.52,-186.42C733.39,-170.58 790.94,-147.67 843,-134.73 1235.34,-37.16 1730.45,-70.88 1889.96,-85.46"/>
<polygon fill="black" stroke="black" points="1889.7,-88.95 1899.98,-86.39 1890.35,-81.98 1889.7,-88.95"/>
<text text-anchor="middle" x="1322" y="-80.53" font-family="Times New Roman,serif" font-size="14.00">advance [is_going_to_help]</text>
</g>
<!-- drills&#45;&gt;main_menu -->
<g id="edge7" class="edge">
<title>drills&#45;&gt;main_menu</title>
<path fill="none" stroke="black" d="M1279.39,-352.88C1179.04,-336.22 925.87,-293.28 843,-270.73 795.8,-257.88 743.52,-238.44 706.61,-223.8"/>
<polygon fill="black" stroke="black" points="707.68,-220.46 697.1,-220 705.08,-226.96 707.68,-220.46"/>
<text text-anchor="middle" x="941" y="-312.53" font-family="Times New Roman,serif" font-size="14.00">advance [is_going_to_main_menu]</text>
</g>
<!-- drills&#45;&gt;help -->
<g id="edge8" class="edge">
<title>drills&#45;&gt;help</title>
<path fill="none" stroke="black" d="M1360.95,-340.83C1379.13,-331.41 1401.02,-319.54 1420,-307.73 1501.67,-256.89 1506.16,-216.12 1596,-181.73 1667.82,-154.22 1693.5,-181.84 1768,-162.73 1812.58,-151.29 1860.74,-130.66 1895.07,-114.4"/>
<polygon fill="black" stroke="black" points="1896.86,-117.43 1904.37,-109.95 1893.84,-111.11 1896.86,-117.43"/>
<text text-anchor="middle" x="1682" y="-185.53" font-family="Times New Roman,serif" font-size="14.00">advance [is_going_to_help]</text>
</g>
<!-- set -->
<g id="node7" class="node">
<title>set</title>
<ellipse fill="white" stroke="black" cx="1943" cy="-610.73" rx="43" ry="43"/>
<text text-anchor="middle" x="1943" y="-607.03" font-family="Times New Roman,serif" font-size="14.00">set</text>
</g>
<!-- drills&#45;&gt;set -->
<g id="edge9" class="edge">
<title>drills&#45;&gt;set</title>
<path fill="none" stroke="black" d="M1351.23,-391.28C1397.11,-440.18 1493.14,-533 1596,-574.73 1694.08,-614.51 1820.03,-616.7 1889.72,-614.12"/>
<polygon fill="black" stroke="black" points="1890.15,-617.6 1900,-613.68 1889.86,-610.61 1890.15,-617.6"/>
<text text-anchor="middle" x="1682" y="-614.53" font-family="Times New Roman,serif" font-size="14.00">advance [is_going_to_set]</text>
</g>
<!-- receive -->
<g id="node8" class="node">
<title>receive</title>
<ellipse fill="white" stroke="black" cx="1943" cy="-506.73" rx="43" ry="43"/>
<text text-anchor="middle" x="1943" y="-503.03" font-family="Times New Roman,serif" font-size="14.00">receive</text>
</g>
<!-- drills&#45;&gt;receive -->
<g id="edge10" class="edge">
<title>drills&#45;&gt;receive</title>
<path fill="none" stroke="black" d="M1360.02,-380.6C1411.26,-408.36 1507.49,-456.51 1596,-478.73 1697.88,-504.3 1821.43,-508.03 1889.91,-507.8"/>
<polygon fill="black" stroke="black" points="1890.03,-511.3 1900.01,-507.74 1889.98,-504.3 1890.03,-511.3"/>
<text text-anchor="middle" x="1682" y="-506.53" font-family="Times New Roman,serif" font-size="14.00">advance [is_going_to_receive]</text>
</g>
<!-- serve -->
<g id="node9" class="node">
<title>serve</title>
<ellipse fill="white" stroke="black" cx="1943" cy="-402.73" rx="43" ry="43"/>
<text text-anchor="middle" x="1943" y="-399.03" font-family="Times New Roman,serif" font-size="14.00">serve</text>
</g>
<!-- drills&#45;&gt;serve -->
<g id="edge11" class="edge">
<title>drills&#45;&gt;serve</title>
<path fill="none" stroke="black" d="M1364.99,-365.53C1418.52,-372.69 1513.94,-384.65 1596,-390.73 1700.05,-398.43 1822.08,-401.2 1889.87,-402.19"/>
<polygon fill="black" stroke="black" points="1889.82,-405.69 1899.87,-402.33 1889.92,-398.69 1889.82,-405.69"/>
<text text-anchor="middle" x="1682" y="-402.53" font-family="Times New Roman,serif" font-size="14.00">advance [is_going_to_serve]</text>
</g>
<!-- spike -->
<g id="node10" class="node">
<title>spike</title>
<ellipse fill="white" stroke="black" cx="1943" cy="-298.73" rx="43" ry="43"/>
<text text-anchor="middle" x="1943" y="-295.03" font-family="Times New Roman,serif" font-size="14.00">spike</text>
</g>
<!-- drills&#45;&gt;spike -->
<g id="edge12" class="edge">
<title>drills&#45;&gt;spike</title>
<path fill="none" stroke="black" d="M1365.06,-355.58C1474.79,-344.77 1769.55,-315.72 1889.82,-303.87"/>
<polygon fill="black" stroke="black" points="1890.27,-307.34 1899.88,-302.88 1889.59,-300.37 1890.27,-307.34"/>
<text text-anchor="middle" x="1682" y="-334.53" font-family="Times New Roman,serif" font-size="14.00">advance [is_going_to_spike]</text>
</g>
<!-- block -->
<g id="node11" class="node">
<title>block</title>
<ellipse fill="white" stroke="black" cx="1943" cy="-194.73" rx="43" ry="43"/>
<text text-anchor="middle" x="1943" y="-191.03" font-family="Times New Roman,serif" font-size="14.00">block</text>
</g>
<!-- drills&#45;&gt;block -->
<g id="edge13" class="edge">
<title>drills&#45;&gt;block</title>
<path fill="none" stroke="black" d="M1362.9,-345.99C1415.77,-328.08 1512.16,-296.5 1596,-274.73 1671.59,-255.09 1691.9,-256.3 1768,-238.73 1809.72,-229.09 1856.8,-217.12 1891.45,-208.1"/>
<polygon fill="black" stroke="black" points="1892.54,-211.43 1901.33,-205.52 1890.77,-204.66 1892.54,-211.43"/>
<text text-anchor="middle" x="1682" y="-278.53" font-family="Times New Roman,serif" font-size="14.00">advance [is_going_to_block]</text>
</g>
<!-- positions&#45;&gt;main_menu -->
<g id="edge14" class="edge">
<title>positions&#45;&gt;main_menu</title>
<path fill="none" stroke="black" d="M1279.07,-249.24C1224.1,-241 1124.57,-226.97 1039,-219.73 921.89,-209.81 783.99,-205.95 710.45,-204.52"/>
<polygon fill="black" stroke="black" points="710.14,-201.01 700.08,-204.32 710.01,-208.01 710.14,-201.01"/>
<text text-anchor="middle" x="941" y="-223.53" font-family="Times New Roman,serif" font-size="14.00">advance [is_going_to_main_menu]</text>
</g>
<!-- positions&#45;&gt;help -->
<g id="edge15" class="edge">
<title>positions&#45;&gt;help</title>
<path fill="none" stroke="black" d="M1360.89,-237.3C1412.71,-212.91 1509.19,-170.34 1596,-147.73 1670.63,-128.28 1691.9,-137.24 1768,-124.73 1809.46,-117.91 1856.19,-108.69 1890.77,-101.58"/>
<polygon fill="black" stroke="black" points="1891.56,-104.99 1900.64,-99.53 1890.14,-98.13 1891.56,-104.99"/>
<text text-anchor="middle" x="1682" y="-151.53" font-family="Times New Roman,serif" font-size="14.00">advance [is_going_to_help]</text>
</g>
<!-- rules&#45;&gt;main_menu -->
<g id="edge16" class="edge">
<title>rules&#45;&gt;main_menu</title>
<path fill="none" stroke="black" d="M1278.86,-147.88C1195.25,-141.1 1002.69,-129.71 843,-151.73 795.97,-158.21 744.07,-173.55 707.24,-185.9"/>
<polygon fill="black" stroke="black" points="706.09,-182.59 697.75,-189.13 708.34,-189.22 706.09,-182.59"/>
<text text-anchor="middle" x="941" y="-155.53" font-family="Times New Roman,serif" font-size="14.00">advance [is_going_to_main_menu]</text>
</g>
<!-- rules&#45;&gt;help -->
<g id="edge17" class="edge">
<title>rules&#45;&gt;help</title>
<path fill="none" stroke="black" d="M1364.46,-144.05C1417.82,-134.48 1513.49,-118.32 1596,-109.73 1699.87,-98.91 1821.96,-94.03 1889.81,-92"/>
<polygon fill="black" stroke="black" points="1889.92,-95.5 1899.82,-91.71 1889.72,-88.5 1889.92,-95.5"/>
<text text-anchor="middle" x="1682" y="-113.53" font-family="Times New Roman,serif" font-size="14.00">advance [is_going_to_help]</text>
</g>
<!-- help&#45;&gt;main_menu -->
<g id="edge18" class="edge">
<title>help&#45;&gt;main_menu</title>
<path fill="none" stroke="black" d="M1900.82,-81.74C1752.77,-51.31 1235.49,38.83 843,-93.73 790.07,-111.6 735.86,-146.12 699.92,-171.74"/>
<polygon fill="black" stroke="black" points="697.7,-169.03 691.64,-177.72 701.8,-174.7 697.7,-169.03"/>
<text text-anchor="middle" x="1322" y="-30.53" font-family="Times New Roman,serif" font-size="14.00">advance [is_going_to_main_menu]</text>
</g>
<!-- set&#45;&gt;drills -->
<g id="edge19" class="edge">
<title>set&#45;&gt;drills</title>
<path fill="none" stroke="black" d="M1902.28,-596.78C1867.25,-584.82 1814.65,-567.67 1768,-555.73 1692.51,-536.4 1668.78,-549.57 1596,-521.73 1508.48,-488.24 1416.78,-427.77 1365.07,-390.93"/>
<polygon fill="black" stroke="black" points="1366.98,-388 1356.81,-385.01 1362.9,-393.68 1366.98,-388"/>
<text text-anchor="middle" x="1682" y="-559.53" font-family="Times New Roman,serif" font-size="14.00">advance</text>
</g>
<!-- receive&#45;&gt;drills -->
<g id="edge20" class="edge">
<title>receive&#45;&gt;drills</title>
<path fill="none" stroke="black" d="M1901.35,-495.22C1866.16,-485.38 1813.87,-471.07 1768,-459.73 1625.95,-424.6 1457.11,-388.08 1374.16,-370.48"/>
<polygon fill="black" stroke="black" points="1374.75,-367.03 1364.24,-368.38 1373.3,-373.87 1374.75,-367.03"/>
<text text-anchor="middle" x="1682" y="-463.53" font-family="Times New Roman,serif" font-size="14.00">advance</text>
</g>
<!-- serve&#45;&gt;drills -->
<g id="edge21" class="edge">
<title>serve&#45;&gt;drills</title>
<path fill="none" stroke="black" d="M1900.76,-393.58C1865.66,-386.24 1813.79,-376.4 1768,-371.73 1626.62,-357.31 1458.74,-357.41 1375.38,-358.61"/>
<polygon fill="black" stroke="black" points="1375.11,-355.12 1365.16,-358.77 1375.21,-362.12 1375.11,-355.12"/>
<text text-anchor="middle" x="1682" y="-375.53" font-family="Times New Roman,serif" font-size="14.00">advance</text>
</g>
<!-- spike&#45;&gt;drills -->
<g id="edge22" class="edge">
<title>spike&#45;&gt;drills</title>
<path fill="none" stroke="black" d="M1899.81,-298.41C1864.57,-298.17 1813.01,-297.85 1768,-297.73 1691.56,-297.51 1671.97,-289.21 1596,-297.73 1517.11,-306.57 1427.76,-329.37 1373.4,-344.71"/>
<polygon fill="black" stroke="black" points="1372.33,-341.38 1363.67,-347.49 1374.25,-348.11 1372.33,-341.38"/>
<text text-anchor="middle" x="1682" y="-301.53" font-family="Times New Roman,serif" font-size="14.00">advance</text>
</g>
<!-- block&#45;&gt;drills -->
<g id="edge23" class="edge">
<title>block&#45;&gt;drills</title>
<path fill="none" stroke="black" d="M1899.93,-195.67C1820.64,-197.79 1652.04,-204.04 1596,-219.73 1584.04,-223.07 1444.58,-295.86 1369.77,-335.13"/>
<polygon fill="black" stroke="black" points="1367.76,-332.23 1360.54,-339.97 1371.02,-338.42 1367.76,-332.23"/>
<text text-anchor="middle" x="1682" y="-223.53" font-family="Times New Roman,serif" font-size="14.00">advance</text>
</g>
</g>
</svg>
